<svg width="25" height="25" viewBox="0 0 25 25" fill="none" xmlns="http://www.w3.org/2000/svg">
<path d="M14.8333 9.45234V12.3523H17.4333C17.6333 12.3523 17.7333 12.5523 17.7333 12.7523L17.3333 14.6523C17.3333 14.7523 17.1333 14.8523 17.0333 14.8523H14.8333V22.1523H11.8333V14.9523H10.1333C9.93333 14.9523 9.83333 14.8523 9.83333 14.6523V12.7523C9.83333 12.5523 9.93333 12.4523 10.1333 12.4523H11.8333V9.15234C11.8333 7.45234 13.1333 6.15234 14.8333 6.15234H17.5333C17.7333 6.15234 17.8333 6.25234 17.8333 6.45234V8.85234C17.8333 9.05234 17.7333 9.15234 17.5333 9.15234H15.1333C14.9333 9.15234 14.8333 9.25234 14.8333 9.45234Z" stroke="#2A3D45" stroke-miterlimit="10" stroke-linecap="round"/>
<path d="M15.8333 22.1523H9.83333C4.83333 22.1523 2.83333 20.1523 2.83333 15.1523V9.15234C2.83333 4.15234 4.83333 2.15234 9.83333 2.15234H15.8333C20.8333 2.15234 22.8333 4.15234 22.8333 9.15234V15.1523C22.8333 20.1523 20.8333 22.1523 15.8333 22.1523Z" stroke="#2A3D45" stroke-linecap="round" stroke-linejoin="round"/>
</svg>
