<svg width="25" height="25" viewBox="0 0 25 25" fill="none" xmlns="http://www.w3.org/2000/svg">
<path d="M9.5 22.1523H15.5C20.5 22.1523 22.5 20.1523 22.5 15.1523V9.15234C22.5 4.15234 20.5 2.15234 15.5 2.15234H9.5C4.5 2.15234 2.5 4.15234 2.5 9.15234V15.1523C2.5 20.1523 4.5 22.1523 9.5 22.1523Z" stroke="#2A3D45" stroke-linecap="round" stroke-linejoin="round"/>
<path d="M12.5 15.6523C14.433 15.6523 16 14.0853 16 12.1523C16 10.2193 14.433 8.65234 12.5 8.65234C10.567 8.65234 9 10.2193 9 12.1523C9 14.0853 10.567 15.6523 12.5 15.6523Z" stroke="#2A3D45" stroke-linecap="round" stroke-linejoin="round"/>
<path d="M18.1361 7.15234H18.1477" stroke="#2A3D45" stroke-linecap="round" stroke-linejoin="round"/>
</svg>
