<svg width="267" height="28" viewBox="0 0 267 28" fill="none" xmlns="http://www.w3.org/2000/svg">
<path d="M25.5389 13.7959C25.5389 20.4347 20.1571 25.8165 13.5183 25.8165C6.87962 25.8165 1.4978 20.4347 1.4978 13.7959C1.4978 7.15718 6.87962 1.77539 13.5183 1.77539C20.1571 1.77539 25.5389 7.15718 25.5389 13.7959Z" fill="#FF5646"/>
<path d="M38.5022 13.7959C38.5022 20.4347 33.1731 25.8165 26.5995 25.8165C20.0258 25.8165 14.6968 20.4347 14.6968 13.7959C14.6968 7.15718 20.0258 1.77539 26.5995 1.77539C33.1731 1.77539 38.5022 7.15718 38.5022 13.7959Z" fill="#FFD700"/>
<path d="M20.0911 23.8625C23.3716 21.7161 25.5388 18.0094 25.5388 13.7965C25.5388 9.5836 23.3716 5.87686 20.0911 3.73047C16.8428 5.87686 14.6968 9.5836 14.6968 13.7965C14.6968 18.0094 16.8428 21.7161 20.0911 23.8625Z" fill="#5D2C02"/>
<path d="M45.74 25.0645V2.66445H49.9V25.0645H45.74ZM47.852 16.5525V12.6805H54.828C55.9373 12.6805 56.7907 12.4138 57.388 11.8805C57.9853 11.3258 58.284 10.5685 58.284 9.60845H62.604C62.604 11.7205 61.9427 13.4058 60.62 14.6645C59.3187 15.9231 57.5267 16.5525 55.244 16.5525H47.852ZM58.284 9.60845C58.284 8.64845 57.9853 7.90179 57.388 7.36845C56.7907 6.81378 55.9373 6.53645 54.828 6.53645H47.852V2.66445H55.244C57.5267 2.66445 59.3187 3.29379 60.62 4.55245C61.9427 5.81112 62.604 7.49645 62.604 9.60845H58.284ZM57.964 25.0645L53.036 15.3365L57.228 14.3125L62.604 24.8085V25.0645H57.964ZM72.6655 25.5765C70.9588 25.5765 69.4548 25.2138 68.1535 24.4885C66.8735 23.7631 65.8708 22.7498 65.1455 21.4485C64.4202 20.1471 64.0575 18.6431 64.0575 16.9365C64.0575 15.2298 64.4095 13.7258 65.1135 12.4245C65.8388 11.1231 66.8308 10.1098 68.0895 9.38445C69.3482 8.65912 70.8095 8.29645 72.4735 8.29645C74.1162 8.29645 75.5455 8.66979 76.7615 9.41645C77.9775 10.1631 78.9268 11.2085 79.6095 12.5525C80.2922 13.8965 80.6335 15.4645 80.6335 17.2565V18.0245L80.1535 18.5045H65.9775V15.0805H78.8735L76.4735 15.9445C76.4735 15.1551 76.2922 14.4618 75.9295 13.8645C75.5882 13.2671 75.1188 12.8085 74.5215 12.4885C73.9455 12.1471 73.2948 11.9765 72.5695 11.9765C71.7588 11.9765 71.0335 12.1578 70.3935 12.5205C69.7535 12.8618 69.2522 13.3418 68.8895 13.9605C68.5482 14.5578 68.3775 15.2511 68.3775 16.0405V17.7365C68.3775 18.4831 68.5695 19.1765 68.9535 19.8165C69.3588 20.4351 69.8815 20.9365 70.5215 21.3205C71.1828 21.7045 71.8975 21.8965 72.6655 21.8965C73.3482 21.8965 74.0095 21.6938 74.6495 21.2885C75.2895 20.8831 75.7908 20.3391 76.1535 19.6565H76.5375L79.9935 21.0965C79.3322 22.5471 78.3615 23.6565 77.0815 24.4245C75.8228 25.1925 74.3508 25.5765 72.6655 25.5765ZM83.67 25.0645V8.80845H87.67V12.6805L86.614 12.9045C86.998 11.9445 87.51 11.1231 88.15 10.4405C88.79 9.75779 89.5367 9.23512 90.39 8.87245C91.2433 8.48845 92.1713 8.29645 93.174 8.29645C94.326 8.29645 95.3713 8.55245 96.31 9.06445C97.27 9.55512 98.0273 10.2911 98.582 11.2725C99.158 12.2538 99.446 13.4805 99.446 14.9525V25.0645H95.126V16.3285C95.126 15.4111 94.998 14.6431 94.742 14.0245C94.5073 13.4058 94.1553 12.9365 93.686 12.6165C93.2167 12.2965 92.6513 12.1365 91.99 12.1365C91.478 12.1365 90.9127 12.2751 90.294 12.5525C89.6753 12.8298 89.1313 13.3311 88.662 14.0565C88.214 14.7605 87.99 15.7951 87.99 17.1605V25.0645H83.67ZM108.99 25.0645C107.304 25.0645 105.96 24.5418 104.958 23.4965C103.976 22.4298 103.486 20.9898 103.486 19.1765V4.71245H107.806V18.6965C107.806 19.4858 108.03 20.1151 108.478 20.5845C108.947 21.0325 109.576 21.2565 110.366 21.2565H111.902L112.062 21.6085V25.0645H108.99ZM100.734 12.6165V8.80845H112.062V12.6165H100.734ZM128.192 25.5765C127.082 25.5765 126.09 25.3631 125.216 24.9365C124.362 24.5098 123.69 23.9125 123.2 23.1445C122.709 22.3765 122.464 21.5018 122.464 20.5205C122.464 18.9418 122.997 17.6938 124.064 16.7765C125.152 15.8378 126.73 15.2831 128.8 15.1125L135.104 14.5685V18.0245L129.344 18.5045C128.426 18.5898 127.776 18.7818 127.392 19.0805C127.029 19.3791 126.848 19.7631 126.848 20.2325C126.848 20.7018 127.072 21.0858 127.52 21.3845C127.968 21.6618 128.533 21.8005 129.216 21.8005C129.962 21.8005 130.634 21.6085 131.232 21.2245C131.85 20.8405 132.341 20.3498 132.704 19.7525C133.066 19.1338 133.248 18.4831 133.248 17.8005V15.1445C133.248 14.2271 132.928 13.4698 132.288 12.8725C131.648 12.2751 130.837 11.9765 129.856 11.9765C128.938 11.9765 128.202 12.2111 127.648 12.6805C127.093 13.1285 126.762 13.6298 126.656 14.1845H126.304L122.656 13.4165C122.976 11.9658 123.765 10.7498 125.024 9.76845C126.304 8.78712 127.914 8.29645 129.856 8.29645C132.202 8.29645 134.048 8.95779 135.392 10.2805C136.757 11.6031 137.44 13.4698 137.44 15.8805V25.0645H133.696V20.3285H135.264C135.008 21.2671 134.538 22.1418 133.856 22.9525C133.194 23.7418 132.384 24.3818 131.424 24.8725C130.464 25.3418 129.386 25.5765 128.192 25.5765ZM151.668 20.8405V14.8565L162.132 2.66445H167.412V2.92045L151.668 20.8405ZM149.428 25.0645V2.66445H153.748V25.0645H149.428ZM162.836 25.0645L155.38 13.9605L158.612 11.1445L167.764 24.8085V25.0645H162.836ZM173.348 25.5765C172.239 25.5765 171.247 25.3631 170.372 24.9365C169.519 24.5098 168.847 23.9125 168.356 23.1445C167.865 22.3765 167.62 21.5018 167.62 20.5205C167.62 18.9418 168.153 17.6938 169.22 16.7765C170.308 15.8378 171.887 15.2831 173.956 15.1125L180.26 14.5685V18.0245L174.5 18.5045C173.583 18.5898 172.932 18.7818 172.548 19.0805C172.185 19.3791 172.004 19.7631 172.004 20.2325C172.004 20.7018 172.228 21.0858 172.676 21.3845C173.124 21.6618 173.689 21.8005 174.372 21.8005C175.119 21.8005 175.791 21.6085 176.388 21.2245C177.007 20.8405 177.497 20.3498 177.86 19.7525C178.223 19.1338 178.404 18.4831 178.404 17.8005V15.1445C178.404 14.2271 178.084 13.4698 177.444 12.8725C176.804 12.2751 175.993 11.9765 175.012 11.9765C174.095 11.9765 173.359 12.2111 172.804 12.6805C172.249 13.1285 171.919 13.6298 171.812 14.1845H171.46L167.812 13.4165C168.132 11.9658 168.921 10.7498 170.18 9.76845C171.46 8.78712 173.071 8.29645 175.012 8.29645C177.359 8.29645 179.204 8.95779 180.548 10.2805C181.913 11.6031 182.596 13.4698 182.596 15.8805V25.0645H178.852V20.3285H180.42C180.164 21.2671 179.695 22.1418 179.012 22.9525C178.351 23.7418 177.54 24.3818 176.58 24.8725C175.62 25.3418 174.543 25.5765 173.348 25.5765ZM192.376 25.5765C190.562 25.5765 189.005 25.1605 187.704 24.3285C186.424 23.4751 185.57 22.3231 185.144 20.8725L189.08 19.8805L189.464 19.9765C189.634 20.5738 189.997 21.0431 190.552 21.3845C191.128 21.7258 191.789 21.8965 192.536 21.8965C193.261 21.8965 193.869 21.7578 194.36 21.4805C194.85 21.1818 195.096 20.7978 195.096 20.3285C195.096 19.9231 194.946 19.6031 194.648 19.3685C194.349 19.1338 193.901 18.9525 193.304 18.8245L190.232 18.1525C188.717 17.8111 187.544 17.2351 186.712 16.4245C185.901 15.5925 185.496 14.5791 185.496 13.3845C185.496 12.3605 185.784 11.4751 186.36 10.7285C186.936 9.96045 187.725 9.36312 188.728 8.93645C189.752 8.50979 190.904 8.29645 192.184 8.29645C193.912 8.29645 195.373 8.72312 196.568 9.57645C197.784 10.4085 198.584 11.5711 198.968 13.0645L195.32 13.8645L194.968 13.8005C194.818 13.2671 194.456 12.8298 193.88 12.4885C193.325 12.1471 192.696 11.9765 191.992 11.9765C191.352 11.9765 190.808 12.0938 190.36 12.3285C189.933 12.5631 189.72 12.8938 189.72 13.3205C189.72 13.5978 189.837 13.8645 190.072 14.1205C190.328 14.3551 190.712 14.5258 191.224 14.6325L194.296 15.3365C195.938 15.7205 197.186 16.2858 198.04 17.0325C198.893 17.7578 199.32 18.7711 199.32 20.0725C199.32 21.1818 199.021 22.1525 198.424 22.9845C197.826 23.8165 197.005 24.4565 195.96 24.9045C194.914 25.3525 193.72 25.5765 192.376 25.5765ZM207.129 25.5765C206.02 25.5765 205.028 25.3631 204.153 24.9365C203.3 24.5098 202.628 23.9125 202.137 23.1445C201.647 22.3765 201.401 21.5018 201.401 20.5205C201.401 18.9418 201.935 17.6938 203.001 16.7765C204.089 15.8378 205.668 15.2831 207.737 15.1125L214.041 14.5685V18.0245L208.281 18.5045C207.364 18.5898 206.713 18.7818 206.329 19.0805C205.967 19.3791 205.785 19.7631 205.785 20.2325C205.785 20.7018 206.009 21.0858 206.457 21.3845C206.905 21.6618 207.471 21.8005 208.153 21.8005C208.9 21.8005 209.572 21.6085 210.169 21.2245C210.788 20.8405 211.279 20.3498 211.641 19.7525C212.004 19.1338 212.185 18.4831 212.185 17.8005V15.1445C212.185 14.2271 211.865 13.4698 211.225 12.8725C210.585 12.2751 209.775 11.9765 208.793 11.9765C207.876 11.9765 207.14 12.2111 206.585 12.6805C206.031 13.1285 205.7 13.6298 205.593 14.1845H205.241L201.593 13.4165C201.913 11.9658 202.703 10.7498 203.961 9.76845C205.241 8.78712 206.852 8.29645 208.793 8.29645C211.14 8.29645 212.985 8.95779 214.329 10.2805C215.695 11.6031 216.377 13.4698 216.377 15.8805V25.0645H212.633V20.3285H214.201C213.945 21.2671 213.476 22.1418 212.793 22.9525C212.132 23.7418 211.321 24.3818 210.361 24.8725C209.401 25.3418 208.324 25.5765 207.129 25.5765ZM220.045 25.0645V8.80845H224.045V12.3925L223.501 11.7845C223.906 11.0378 224.376 10.4085 224.909 9.89645C225.442 9.38445 226.072 8.98979 226.797 8.71245C227.544 8.43512 228.408 8.29645 229.389 8.29645C230.69 8.29645 231.874 8.65912 232.941 9.38445C234.008 10.0885 234.744 11.1551 235.149 12.5845L233.901 12.4885C234.306 11.5925 234.84 10.8351 235.501 10.2165C236.184 9.59779 236.952 9.12845 237.805 8.80845C238.68 8.46712 239.586 8.29645 240.525 8.29645C241.613 8.29645 242.616 8.55245 243.533 9.06445C244.472 9.55512 245.218 10.2911 245.773 11.2725C246.349 12.2538 246.637 13.4805 246.637 14.9525V25.0645H242.317V16.0085C242.317 15.1765 242.189 14.4725 241.933 13.8965C241.698 13.3205 241.357 12.8831 240.909 12.5845C240.482 12.2858 239.96 12.1365 239.341 12.1365C238.85 12.1365 238.306 12.2751 237.709 12.5525C237.112 12.8298 236.589 13.3311 236.141 14.0565C235.714 14.7605 235.501 15.7951 235.501 17.1605V25.0645H231.181V16.0085C231.181 15.1765 231.053 14.4725 230.797 13.8965C230.562 13.3205 230.221 12.8831 229.773 12.5845C229.346 12.2858 228.824 12.1365 228.205 12.1365C227.714 12.1365 227.17 12.2751 226.573 12.5525C225.976 12.8298 225.453 13.3311 225.005 14.0565C224.578 14.7605 224.365 15.7951 224.365 17.1605V25.0645H220.045ZM255.254 25.5765C254.145 25.5765 253.153 25.3631 252.278 24.9365C251.425 24.5098 250.753 23.9125 250.262 23.1445C249.772 22.3765 249.526 21.5018 249.526 20.5205C249.526 18.9418 250.06 17.6938 251.126 16.7765C252.214 15.8378 253.793 15.2831 255.862 15.1125L262.166 14.5685V18.0245L256.406 18.5045C255.489 18.5898 254.838 18.7818 254.454 19.0805C254.092 19.3791 253.91 19.7631 253.91 20.2325C253.91 20.7018 254.134 21.0858 254.582 21.3845C255.03 21.6618 255.596 21.8005 256.278 21.8005C257.025 21.8005 257.697 21.6085 258.294 21.2245C258.913 20.8405 259.404 20.3498 259.766 19.7525C260.129 19.1338 260.31 18.4831 260.31 17.8005V15.1445C260.31 14.2271 259.99 13.4698 259.35 12.8725C258.71 12.2751 257.9 11.9765 256.918 11.9765C256.001 11.9765 255.265 12.2111 254.71 12.6805C254.156 13.1285 253.825 13.6298 253.718 14.1845H253.366L249.718 13.4165C250.038 11.9658 250.828 10.7498 252.086 9.76845C253.366 8.78712 254.977 8.29645 256.918 8.29645C259.265 8.29645 261.11 8.95779 262.454 10.2805C263.82 11.6031 264.502 13.4698 264.502 15.8805V25.0645H260.758V20.3285H262.326C262.07 21.2671 261.601 22.1418 260.918 22.9525C260.257 23.7418 259.446 24.3818 258.486 24.8725C257.526 25.3418 256.449 25.5765 255.254 25.5765Z" fill="#2A3D45"/>
</svg>
