<svg width="26" height="22" viewBox="0 0 26 22" fill="none" xmlns="http://www.w3.org/2000/svg">
<path d="M24.4931 1.46646C24.4931 1.46646 23.2234 2.49044 21.4416 2.67477C21.4416 2.67477 18.6358 -0.458684 14.6217 2.26518C12.8195 3.53493 12.6556 6.21785 12.9628 7.1804C12.9628 7.1804 7.51516 7.61048 2.76377 2.03992C2.76377 2.03992 0.633861 5.72633 4.1564 8.67546C4.1564 8.67546 3.11526 8.83928 2.12558 8.02011C2.12558 8.02011 1.6578 11.8294 5.91767 12.8944C5.91767 12.8944 5.63096 13.3859 3.91064 12.8944C3.91064 12.8944 4.19734 16.0073 8.2524 16.4579C8.2524 16.4579 6.06173 18.7107 1.13595 18.424C1.13595 18.424 9.27643 24.5271 18.0828 17.1543C22.998 12.9763 22.8342 6.95518 22.7523 6.05407C22.7523 6.05407 24.6934 4.57951 25.1974 3.63741C25.1974 3.63741 23.6944 4.12893 22.4656 4.12893C22.4656 4.12883 24.104 3.26867 24.4931 1.46646Z" stroke="#2A3D45" stroke-width="0.983043" stroke-miterlimit="10" stroke-linecap="round" stroke-linejoin="round"/>
</svg>
