<svg width="39" height="27" viewBox="0 0 39 27" fill="none" xmlns="http://www.w3.org/2000/svg">
<path d="M25.0389 12.8219C25.0389 19.4607 19.6571 24.8425 13.0183 24.8425C6.37962 24.8425 0.997803 19.4607 0.997803 12.8219C0.997803 6.18318 6.37962 0.801392 13.0183 0.801392C19.6571 0.801392 25.0389 6.18318 25.0389 12.8219Z" fill="#FF5646"/>
<path d="M38.0022 12.8219C38.0022 19.4607 32.6731 24.8425 26.0995 24.8425C19.5259 24.8425 14.1968 19.4607 14.1968 12.8219C14.1968 6.18318 19.5259 0.801392 26.0995 0.801392C32.6731 0.801392 38.0022 6.18318 38.0022 12.8219Z" fill="#FFD700"/>
<path d="M19.5911 22.888C22.8716 20.7416 25.0389 17.0349 25.0389 12.8219C25.0389 8.60908 22.8716 4.90234 19.5911 2.75595C16.3428 4.90234 14.1968 8.60908 14.1968 12.8219C14.1968 17.0349 16.3428 20.7416 19.5911 22.888Z" fill="#5D2C02"/>
</svg>
