<svg width="32" height="32" viewBox="0 0 32 32" fill="none" xmlns="http://www.w3.org/2000/svg">
<path d="M16.4933 2.86711L28.4933 7.66708C28.96 7.85374 29.3333 8.41373 29.3333 8.90707V13.3337C29.3333 14.0671 28.7333 14.6671 28 14.6671H4.00001C3.26667 14.6671 2.66667 14.0671 2.66667 13.3337V8.90707C2.66667 8.41373 3.04001 7.85374 3.50668 7.66708L15.5067 2.86711C15.7733 2.76044 16.2267 2.76044 16.4933 2.86711Z" stroke="#F5F5F5" stroke-width="1.5" stroke-miterlimit="10" stroke-linecap="round" stroke-linejoin="round"/>
<path d="M29.3333 29.3333H2.66667V25.3333C2.66667 24.6 3.26667 24 4.00001 24H28C28.7333 24 29.3333 24.6 29.3333 25.3333V29.3333Z" stroke="#F5F5F5" stroke-width="1.5" stroke-miterlimit="10" stroke-linecap="round" stroke-linejoin="round"/>
<path d="M5.33333 23.9993V14.666" stroke="#F5F5F5" stroke-width="1.5" stroke-miterlimit="10" stroke-linecap="round" stroke-linejoin="round"/>
<path d="M10.6667 23.9993V14.666" stroke="#F5F5F5" stroke-width="1.5" stroke-miterlimit="10" stroke-linecap="round" stroke-linejoin="round"/>
<path d="M16 23.9993V14.666" stroke="#F5F5F5" stroke-width="1.5" stroke-miterlimit="10" stroke-linecap="round" stroke-linejoin="round"/>
<path d="M21.3333 23.9993V14.666" stroke="#F5F5F5" stroke-width="1.5" stroke-miterlimit="10" stroke-linecap="round" stroke-linejoin="round"/>
<path d="M26.6667 23.9993V14.666" stroke="#F5F5F5" stroke-width="1.5" stroke-miterlimit="10" stroke-linecap="round" stroke-linejoin="round"/>
<path d="M1.33333 29.334H30.6667" stroke="#F5F5F5" stroke-width="1.5" stroke-miterlimit="10" stroke-linecap="round" stroke-linejoin="round"/>
<path d="M16 11.334C17.1046 11.334 18 10.4386 18 9.33398C18 8.22941 17.1046 7.33398 16 7.33398C14.8954 7.33398 14 8.22941 14 9.33398C14 10.4386 14.8954 11.334 16 11.334Z" stroke="#F5F5F5" stroke-width="1.5" stroke-miterlimit="10" stroke-linecap="round" stroke-linejoin="round"/>
</svg>
