<svg width="45" height="38" viewBox="0 0 45 38" fill="none" xmlns="http://www.w3.org/2000/svg">
<path d="M18.987 18.9875H29.0389C29.0389 24.539 24.5385 29.0394 18.987 29.0394C13.4355 29.0394 8.93504 24.539 8.93504 18.9875C8.93504 13.436 13.4355 8.93555 18.987 8.93555C21.7627 8.93555 24.2757 10.0608 26.0948 11.8797" stroke="#F5F5F5" stroke-width="3.35065" stroke-linecap="round" stroke-linejoin="round"/>
<path d="M33.2734 12.2854L36.0416 10.9544C37.1732 13.3533 37.8134 16.0289 37.8339 18.8474H34.7624C34.7421 16.4998 34.2099 14.2778 33.2734 12.2854ZM33.1587 25.943L35.9154 27.2687C35.7318 27.5756 35.4458 27.8101 35.1056 27.9294C34.7212 28.0641 34.299 28.0407 33.9319 27.8641C33.5649 27.6876 33.2829 27.3725 33.1482 26.9881C33.0289 26.6479 33.0336 26.278 33.1587 25.943ZM37.8339 19.1266C37.8134 21.9452 37.1732 24.6207 36.0416 27.0196L33.2734 25.6884C34.2099 23.6958 34.7421 21.4743 34.7624 19.1266H37.8339ZM35.9154 10.7053L33.1587 12.0308C33.0337 11.6957 33.029 11.3259 33.1483 10.9857C33.2831 10.6014 33.565 10.2863 33.9321 10.1098C34.2991 9.9333 34.7213 9.90986 35.1057 10.0446C35.4459 10.1639 35.7318 10.3985 35.9154 10.7053ZM28.7467 6.58356L30.6198 4.16313C30.7344 4.26835 30.8325 4.39054 30.9106 4.52568C31.0119 4.70097 31.0776 4.89457 31.1038 5.09534C31.1301 5.29611 31.1163 5.50009 31.0634 5.69553C31.0105 5.89097 30.9195 6.07402 30.7956 6.23415C30.6717 6.39428 30.5173 6.52832 30.3414 6.62857C30.1655 6.72881 29.9715 6.79328 29.7705 6.81826C29.5696 6.84324 29.3657 6.82824 29.1706 6.77412C29.0202 6.7324 28.8773 6.66807 28.7467 6.58356ZM30.402 3.98831L28.5222 6.41744C25.9078 4.43108 22.6574 3.24223 19.1266 3.21166V0.139949C23.2032 0.164411 27.1612 1.51529 30.402 3.98831ZM18.8474 3.21166C10.2453 3.28623 3.28621 10.2454 3.21164 18.8474H0.140117C0.214829 8.54915 8.54913 0.214849 18.8474 0.140136V3.21166ZM30.402 33.9858C27.1612 36.4588 23.2032 37.8097 19.1266 37.8341V34.7624C22.6574 34.7318 25.9078 33.543 28.5222 31.5566L30.402 33.9858ZM3.21164 19.1266C3.28621 27.7287 10.2453 34.6878 18.8474 34.7624V37.8339C8.54913 37.7592 0.214829 29.4249 0.140117 19.1266H3.21164ZM30.6186 33.8094L28.7479 31.392C29.049 31.2029 29.408 31.1233 29.7635 31.1698C30.1658 31.2223 30.5309 31.4319 30.7791 31.7527C31.0274 32.0735 31.1386 32.4795 31.0886 32.882C31.0443 33.2378 30.8773 33.5654 30.6186 33.8094Z" fill="#F5F5F5" stroke="#F5F5F5" stroke-width="0.279221"/>
<path d="M40.6403 8.59375C42.1525 11.7389 43 15.2643 43 18.9875C43 22.7106 42.1525 26.236 40.6403 29.3809" stroke="#F5F5F5" stroke-width="3.35065" stroke-linecap="round" stroke-linejoin="round"/>
</svg>
