<svg width="100" height="100" viewBox="0 0 100 100" fill="none" xmlns="http://www.w3.org/2000/svg">
<g opacity="0.3">
<path d="M66.2917 51.541H85.8333C85.5 70.9993 81.6667 74.2077 69.7083 81.291C68.3333 82.1243 67.875 83.8743 68.7083 85.291C69.5417 86.666 71.2917 87.1243 72.7083 86.291C86.7917 77.9577 91.7083 72.8743 91.7083 48.6243V26.166C91.7083 19.041 85.9167 13.291 78.8333 13.291H66.3333C59 13.291 53.4583 18.8327 53.4583 26.166V38.666C53.4167 45.9993 58.9583 51.541 66.2917 51.541Z" fill="#00E052"/>
<path d="M21.2083 51.541H40.75C40.4167 70.9993 36.5833 74.2077 24.625 81.291C23.25 82.1243 22.7917 83.8743 23.625 85.291C24.4583 86.666 26.2083 87.1243 27.625 86.291C41.7083 77.9577 46.625 72.8743 46.625 48.6243V26.166C46.625 19.041 40.8333 13.291 33.75 13.291H21.25C13.875 13.291 8.33334 18.8327 8.33334 26.166V38.666C8.33334 45.9993 13.875 51.541 21.2083 51.541Z" fill="#00E052"/>
</g>
</svg>
