<svg width="24" height="25" viewBox="0 0 24 25" fill="none" xmlns="http://www.w3.org/2000/svg">
<path d="M3.5 21.4277H20.5C20.91 21.4277 21.25 21.7677 21.25 22.1777C21.25 22.5877 20.91 22.9277 20.5 22.9277H3.5C3.09 22.9277 2.75 22.5877 2.75 22.1777C2.75 21.7677 3.09 21.4277 3.5 21.4277Z" fill="white"/>
<path d="M19 14.6977C18.59 14.6977 18.25 14.3577 18.25 13.9477V5.48773L5.53 18.2077C5.38 18.3577 5.19 18.4277 5 18.4277C4.81 18.4277 4.62 18.3577 4.47 18.2077C4.18 17.9177 4.18 17.4377 4.47 17.1477L17.19 4.42773H8.73C8.32 4.42773 7.98 4.08773 7.98 3.67773C7.98 3.26773 8.32 2.92773 8.73 2.92773H19C19.1 2.92773 19.19 2.94773 19.29 2.98773C19.47 3.05773 19.62 3.20773 19.69 3.38773C19.73 3.48773 19.75 3.57773 19.75 3.67773V13.9477C19.75 14.3577 19.41 14.6977 19 14.6977Z" fill="white"/>
</svg>
