<svg width="25" height="24" viewBox="0 0 25 24" fill="none" xmlns="http://www.w3.org/2000/svg">
<path d="M21.41 11.1199V6.72995C21.41 5.90995 20.79 4.97995 20.02 4.66995L14.45 2.38995C13.2 1.87995 11.79 1.87995 10.54 2.38995L4.97 4.66995C4.21 4.97995 3.59 5.90995 3.59 6.72995V11.1199C3.59 16.0099 7.14 20.5899 11.99 21.9299C12.32 22.0199 12.68 22.0199 13.01 21.9299C17.86 20.5899 21.41 16.0099 21.41 11.1199ZM13.25 12.8699V15.4999C13.25 15.9099 12.91 16.2499 12.5 16.2499C12.09 16.2499 11.75 15.9099 11.75 15.4999V12.8699C10.74 12.5499 10 11.6099 10 10.4999C10 9.11995 11.12 7.99995 12.5 7.99995C13.88 7.99995 15 9.11995 15 10.4999C15 11.6199 14.26 12.5499 13.25 12.8699Z" fill="#FFD700"/>
</svg>
