<svg width="159" height="28" viewBox="0 0 159 28" fill="none" xmlns="http://www.w3.org/2000/svg">
<path d="M25.0389 13.7327C25.0389 20.3715 19.6571 25.7533 13.0183 25.7533C6.37962 25.7533 0.997803 20.3715 0.997803 13.7327C0.997803 7.09394 6.37962 1.71216 13.0183 1.71216C19.6571 1.71216 25.0389 7.09394 25.0389 13.7327Z" fill="#FF5646"/>
<path d="M38.0022 13.7327C38.0022 20.3715 32.6731 25.7533 26.0995 25.7533C19.5258 25.7533 14.1968 20.3715 14.1968 13.7327C14.1968 7.09394 19.5258 1.71216 26.0995 1.71216C32.6731 1.71216 38.0022 7.09394 38.0022 13.7327Z" fill="#FFD700"/>
<path d="M19.5911 23.7988C22.8716 21.6524 25.0388 17.9457 25.0388 13.7327C25.0388 9.51988 22.8716 5.81314 19.5911 3.66675C16.3428 5.81314 14.1968 9.51988 14.1968 13.7327C14.1968 17.9457 16.3428 21.6524 19.5911 23.7988Z" fill="#5D2C02"/>
<path d="M44.12 20V8.48H48.984C49.096 8.48 49.2453 8.48533 49.432 8.496C49.624 8.50133 49.7947 8.51733 49.944 8.544C50.632 8.65067 51.1947 8.87733 51.632 9.224C52.0747 9.57067 52.4 10.008 52.608 10.536C52.816 11.0587 52.92 11.6427 52.92 12.288C52.92 13.2533 52.68 14.08 52.2 14.768C51.72 15.4507 50.968 15.872 49.944 16.032L48.984 16.096H46.296V20H44.12ZM50.616 20L48.344 15.312L50.584 14.88L53.08 20H50.616ZM46.296 14.064H48.888C49 14.064 49.1227 14.0587 49.256 14.048C49.3893 14.0373 49.512 14.016 49.624 13.984C49.9173 13.904 50.144 13.7707 50.304 13.584C50.464 13.392 50.5733 13.1813 50.632 12.952C50.696 12.7173 50.728 12.496 50.728 12.288C50.728 12.08 50.696 11.8613 50.632 11.632C50.5733 11.3973 50.464 11.1867 50.304 11C50.144 10.808 49.9173 10.672 49.624 10.592C49.512 10.56 49.3893 10.5387 49.256 10.528C49.1227 10.5173 49 10.512 48.888 10.512H46.296V14.064ZM58.8548 20.24C57.9694 20.24 57.1881 20.0507 56.5108 19.672C55.8388 19.288 55.3108 18.7627 54.9268 18.096C54.5481 17.424 54.3588 16.656 54.3588 15.792C54.3588 14.848 54.5454 14.0267 54.9188 13.328C55.2921 12.6293 55.8068 12.088 56.4628 11.704C57.1188 11.3147 57.8734 11.12 58.7268 11.12C59.6334 11.12 60.4041 11.3333 61.0388 11.76C61.6734 12.1867 62.1428 12.7867 62.4468 13.56C62.7508 14.3333 62.8574 15.2427 62.7668 16.288H60.6148V15.488C60.6148 14.608 60.4734 13.976 60.1908 13.592C59.9134 13.2027 59.4574 13.008 58.8228 13.008C58.0814 13.008 57.5348 13.2347 57.1828 13.688C56.8361 14.136 56.6628 14.8 56.6628 15.68C56.6628 16.4853 56.8361 17.1093 57.1828 17.552C57.5348 17.9893 58.0494 18.208 58.7268 18.208C59.1534 18.208 59.5188 18.1147 59.8228 17.928C60.1268 17.7413 60.3588 17.472 60.5188 17.12L62.6948 17.744C62.3694 18.5333 61.8548 19.1467 61.1508 19.584C60.4521 20.0213 59.6868 20.24 58.8548 20.24ZM55.9908 16.288V14.672H61.7188V16.288H55.9908ZM70.2268 20V15.92C70.2268 15.7227 70.2161 15.472 70.1948 15.168C70.1734 14.8587 70.1068 14.5493 69.9948 14.24C69.8828 13.9307 69.6988 13.672 69.4428 13.464C69.1921 13.256 68.8348 13.152 68.3708 13.152C68.1841 13.152 67.9841 13.1813 67.7708 13.24C67.5574 13.2987 67.3574 13.4133 67.1708 13.584C66.9841 13.7493 66.8294 13.9947 66.7068 14.32C66.5894 14.6453 66.5308 15.0773 66.5308 15.616L65.2828 15.024C65.2828 14.3413 65.4214 13.7013 65.6988 13.104C65.9761 12.5067 66.3921 12.024 66.9468 11.656C67.5068 11.288 68.2108 11.104 69.0588 11.104C69.7361 11.104 70.2881 11.2187 70.7148 11.448C71.1414 11.6773 71.4721 11.968 71.7068 12.32C71.9468 12.672 72.1174 13.04 72.2188 13.424C72.3201 13.8027 72.3814 14.1493 72.4028 14.464C72.4241 14.7787 72.4348 15.008 72.4348 15.152V20H70.2268ZM64.3228 20V11.36H66.2588V14.224H66.5308V20H64.3228ZM79.6946 20C79.0973 20.112 78.5106 20.16 77.9346 20.144C77.364 20.1333 76.852 20.0347 76.3986 19.848C75.9506 19.656 75.6093 19.3493 75.3746 18.928C75.1613 18.5333 75.0493 18.1333 75.0386 17.728C75.028 17.3173 75.0226 16.8533 75.0226 16.336V8.96H77.1986V16.208C77.1986 16.544 77.2013 16.848 77.2066 17.12C77.2173 17.3867 77.2733 17.6 77.3746 17.76C77.5666 18.064 77.8733 18.2293 78.2946 18.256C78.716 18.2827 79.1826 18.2613 79.6946 18.192V20ZM73.5506 13.04V11.36H79.6946V13.04H73.5506ZM87.2231 20.24C86.6045 20.24 86.0791 20.1227 85.6471 19.888C85.2205 19.648 84.8951 19.3307 84.6711 18.936C84.4525 18.536 84.3431 18.096 84.3431 17.616C84.3431 17.216 84.4045 16.8507 84.5271 16.52C84.6498 16.1893 84.8471 15.8987 85.1191 15.648C85.3965 15.392 85.7671 15.1787 86.2311 15.008C86.5511 14.8907 86.9325 14.7867 87.3751 14.696C87.8178 14.6053 88.3191 14.52 88.8791 14.44C89.4391 14.3547 90.0551 14.2613 90.7271 14.16L89.9431 14.592C89.9431 14.08 89.8205 13.704 89.5751 13.464C89.3298 13.224 88.9191 13.104 88.3431 13.104C88.0231 13.104 87.6898 13.1813 87.3431 13.336C86.9965 13.4907 86.7538 13.7653 86.6151 14.16L84.6471 13.536C84.8658 12.8213 85.2765 12.24 85.8791 11.792C86.4818 11.344 87.3031 11.12 88.3431 11.12C89.1058 11.12 89.7831 11.2373 90.3751 11.472C90.9671 11.7067 91.4151 12.112 91.7191 12.688C91.8898 13.008 91.9911 13.328 92.0231 13.648C92.0551 13.968 92.0711 14.3253 92.0711 14.72V20H90.1671V18.224L90.4391 18.592C90.0178 19.1733 89.5618 19.5947 89.0711 19.856C88.5858 20.112 87.9698 20.24 87.2231 20.24ZM87.6871 18.528C88.0871 18.528 88.4231 18.4587 88.6951 18.32C88.9725 18.176 89.1911 18.0133 89.3511 17.832C89.5165 17.6507 89.6285 17.4987 89.6871 17.376C89.7991 17.1413 89.8631 16.8693 89.8791 16.56C89.9005 16.2453 89.9111 15.984 89.9111 15.776L90.5511 15.936C89.9058 16.0427 89.3831 16.1333 88.9831 16.208C88.5831 16.2773 88.2605 16.3413 88.0151 16.4C87.7698 16.4587 87.5538 16.5227 87.3671 16.592C87.1538 16.6773 86.9805 16.7707 86.8471 16.872C86.7191 16.968 86.6231 17.0747 86.5591 17.192C86.5005 17.3093 86.4711 17.44 86.4711 17.584C86.4711 17.7813 86.5191 17.952 86.6151 18.096C86.7165 18.2347 86.8578 18.3413 87.0391 18.416C87.2205 18.4907 87.4365 18.528 87.6871 18.528ZM97.3544 20V8.48H99.5304V13.792L103.914 8.48H106.57L101.754 14.16L106.874 20H104.122L99.5304 14.752V20H97.3544ZM110.395 20.24C109.776 20.24 109.251 20.1227 108.819 19.888C108.392 19.648 108.067 19.3307 107.843 18.936C107.624 18.536 107.515 18.096 107.515 17.616C107.515 17.216 107.576 16.8507 107.699 16.52C107.822 16.1893 108.019 15.8987 108.291 15.648C108.568 15.392 108.939 15.1787 109.403 15.008C109.723 14.8907 110.104 14.7867 110.547 14.696C110.99 14.6053 111.491 14.52 112.051 14.44C112.611 14.3547 113.227 14.2613 113.899 14.16L113.115 14.592C113.115 14.08 112.992 13.704 112.747 13.464C112.502 13.224 112.091 13.104 111.515 13.104C111.195 13.104 110.862 13.1813 110.515 13.336C110.168 13.4907 109.926 13.7653 109.787 14.16L107.819 13.536C108.038 12.8213 108.448 12.24 109.051 11.792C109.654 11.344 110.475 11.12 111.515 11.12C112.278 11.12 112.955 11.2373 113.547 11.472C114.139 11.7067 114.587 12.112 114.891 12.688C115.062 13.008 115.163 13.328 115.195 13.648C115.227 13.968 115.243 14.3253 115.243 14.72V20H113.339V18.224L113.611 18.592C113.19 19.1733 112.734 19.5947 112.243 19.856C111.758 20.112 111.142 20.24 110.395 20.24ZM110.859 18.528C111.259 18.528 111.595 18.4587 111.867 18.32C112.144 18.176 112.363 18.0133 112.523 17.832C112.688 17.6507 112.8 17.4987 112.859 17.376C112.971 17.1413 113.035 16.8693 113.051 16.56C113.072 16.2453 113.083 15.984 113.083 15.776L113.723 15.936C113.078 16.0427 112.555 16.1333 112.155 16.208C111.755 16.2773 111.432 16.3413 111.187 16.4C110.942 16.4587 110.726 16.5227 110.539 16.592C110.326 16.6773 110.152 16.7707 110.019 16.872C109.891 16.968 109.795 17.0747 109.731 17.192C109.672 17.3093 109.643 17.44 109.643 17.584C109.643 17.7813 109.691 17.952 109.787 18.096C109.888 18.2347 110.03 18.3413 110.211 18.416C110.392 18.4907 110.608 18.528 110.859 18.528ZM120.699 20.24C119.611 20.24 118.731 19.9947 118.059 19.504C117.392 19.008 116.987 18.3093 116.843 17.408L119.067 17.072C119.158 17.4773 119.358 17.7947 119.667 18.024C119.982 18.2533 120.379 18.368 120.859 18.368C121.254 18.368 121.558 18.2933 121.771 18.144C121.984 17.9893 122.091 17.776 122.091 17.504C122.091 17.3333 122.048 17.1973 121.963 17.096C121.878 16.9893 121.686 16.8853 121.387 16.784C121.094 16.6827 120.635 16.5493 120.011 16.384C119.307 16.2027 118.744 16 118.323 15.776C117.902 15.552 117.598 15.2853 117.411 14.976C117.224 14.6613 117.131 14.2827 117.131 13.84C117.131 13.2853 117.272 12.8053 117.555 12.4C117.838 11.9893 118.235 11.6747 118.747 11.456C119.264 11.232 119.872 11.12 120.571 11.12C121.248 11.12 121.848 11.224 122.371 11.432C122.894 11.64 123.315 11.936 123.635 12.32C123.96 12.704 124.16 13.1573 124.235 13.68L122.011 14.08C121.974 13.76 121.835 13.5067 121.595 13.32C121.355 13.1333 121.03 13.024 120.619 12.992C120.219 12.9653 119.896 13.0187 119.651 13.152C119.411 13.2853 119.291 13.4773 119.291 13.728C119.291 13.8773 119.342 14.0027 119.443 14.104C119.55 14.2053 119.766 14.3093 120.091 14.416C120.422 14.5227 120.923 14.6613 121.595 14.832C122.251 15.0027 122.776 15.2027 123.171 15.432C123.571 15.656 123.862 15.928 124.043 16.248C124.224 16.5627 124.315 16.944 124.315 17.392C124.315 18.2773 123.995 18.9733 123.355 19.48C122.715 19.9867 121.83 20.24 120.699 20.24ZM128.473 20.24C127.854 20.24 127.329 20.1227 126.897 19.888C126.47 19.648 126.145 19.3307 125.921 18.936C125.702 18.536 125.593 18.096 125.593 17.616C125.593 17.216 125.654 16.8507 125.777 16.52C125.9 16.1893 126.097 15.8987 126.369 15.648C126.646 15.392 127.017 15.1787 127.481 15.008C127.801 14.8907 128.182 14.7867 128.625 14.696C129.068 14.6053 129.569 14.52 130.129 14.44C130.689 14.3547 131.305 14.2613 131.977 14.16L131.193 14.592C131.193 14.08 131.07 13.704 130.825 13.464C130.58 13.224 130.169 13.104 129.593 13.104C129.273 13.104 128.94 13.1813 128.593 13.336C128.246 13.4907 128.004 13.7653 127.865 14.16L125.897 13.536C126.116 12.8213 126.526 12.24 127.129 11.792C127.732 11.344 128.553 11.12 129.593 11.12C130.356 11.12 131.033 11.2373 131.625 11.472C132.217 11.7067 132.665 12.112 132.969 12.688C133.14 13.008 133.241 13.328 133.273 13.648C133.305 13.968 133.321 14.3253 133.321 14.72V20H131.417V18.224L131.689 18.592C131.268 19.1733 130.812 19.5947 130.321 19.856C129.836 20.112 129.22 20.24 128.473 20.24ZM128.937 18.528C129.337 18.528 129.673 18.4587 129.945 18.32C130.222 18.176 130.441 18.0133 130.601 17.832C130.766 17.6507 130.878 17.4987 130.937 17.376C131.049 17.1413 131.113 16.8693 131.129 16.56C131.15 16.2453 131.161 15.984 131.161 15.776L131.801 15.936C131.156 16.0427 130.633 16.1333 130.233 16.208C129.833 16.2773 129.51 16.3413 129.265 16.4C129.02 16.4587 128.804 16.5227 128.617 16.592C128.404 16.6773 128.23 16.7707 128.097 16.872C127.969 16.968 127.873 17.0747 127.809 17.192C127.75 17.3093 127.721 17.44 127.721 17.584C127.721 17.7813 127.769 17.952 127.865 18.096C127.966 18.2347 128.108 18.3413 128.289 18.416C128.47 18.4907 128.686 18.528 128.937 18.528ZM145.801 20V14.896C145.801 14.3253 145.665 13.8827 145.393 13.568C145.127 13.248 144.756 13.088 144.281 13.088C143.977 13.088 143.713 13.16 143.489 13.304C143.265 13.4427 143.089 13.64 142.961 13.896C142.839 14.1467 142.777 14.4373 142.777 14.768L141.865 14.16C141.865 13.568 142.004 13.0453 142.281 12.592C142.564 12.1387 142.94 11.7867 143.409 11.536C143.884 11.28 144.409 11.152 144.985 11.152C145.972 11.152 146.716 11.4453 147.217 12.032C147.724 12.6133 147.977 13.376 147.977 14.32V20H145.801ZM135.385 20V11.36H137.305V14.224H137.577V20H135.385ZM140.601 20V14.896C140.601 14.3253 140.465 13.8827 140.193 13.568C139.927 13.248 139.556 13.088 139.081 13.088C138.628 13.088 138.263 13.2453 137.985 13.56C137.713 13.8693 137.577 14.272 137.577 14.768L136.665 14.128C136.665 13.5627 136.807 13.056 137.089 12.608C137.372 12.16 137.751 11.8053 138.225 11.544C138.705 11.2827 139.241 11.152 139.833 11.152C140.511 11.152 141.065 11.296 141.497 11.584C141.935 11.872 142.257 12.256 142.465 12.736C142.673 13.216 142.777 13.744 142.777 14.32V20H140.601ZM152.458 20.24C151.839 20.24 151.314 20.1227 150.882 19.888C150.455 19.648 150.13 19.3307 149.906 18.936C149.687 18.536 149.578 18.096 149.578 17.616C149.578 17.216 149.639 16.8507 149.762 16.52C149.884 16.1893 150.082 15.8987 150.354 15.648C150.631 15.392 151.002 15.1787 151.466 15.008C151.786 14.8907 152.167 14.7867 152.61 14.696C153.052 14.6053 153.554 14.52 154.114 14.44C154.674 14.3547 155.29 14.2613 155.962 14.16L155.178 14.592C155.178 14.08 155.055 13.704 154.81 13.464C154.564 13.224 154.154 13.104 153.578 13.104C153.258 13.104 152.924 13.1813 152.578 13.336C152.231 13.4907 151.988 13.7653 151.85 14.16L149.882 13.536C150.1 12.8213 150.511 12.24 151.114 11.792C151.716 11.344 152.538 11.12 153.578 11.12C154.34 11.12 155.018 11.2373 155.61 11.472C156.202 11.7067 156.65 12.112 156.954 12.688C157.124 13.008 157.226 13.328 157.258 13.648C157.29 13.968 157.306 14.3253 157.306 14.72V20H155.402V18.224L155.674 18.592C155.252 19.1733 154.796 19.5947 154.306 19.856C153.82 20.112 153.204 20.24 152.458 20.24ZM152.922 18.528C153.322 18.528 153.658 18.4587 153.93 18.32C154.207 18.176 154.426 18.0133 154.586 17.832C154.751 17.6507 154.863 17.4987 154.922 17.376C155.034 17.1413 155.098 16.8693 155.114 16.56C155.135 16.2453 155.146 15.984 155.146 15.776L155.786 15.936C155.14 16.0427 154.618 16.1333 154.218 16.208C153.818 16.2773 153.495 16.3413 153.25 16.4C153.004 16.4587 152.788 16.5227 152.602 16.592C152.388 16.6773 152.215 16.7707 152.082 16.872C151.954 16.968 151.858 17.0747 151.794 17.192C151.735 17.3093 151.706 17.44 151.706 17.584C151.706 17.7813 151.754 17.952 151.85 18.096C151.951 18.2347 152.092 18.3413 152.274 18.416C152.455 18.4907 152.671 18.528 152.922 18.528Z" fill="white"/>
</svg>
